<?xml version="1.0" encoding="utf-8"?>
<!-- Generator: Adobe Illustrator 13.0.0, SVG Export Plug-In . SVG Version: 6.00 Build 14948)  -->
<!DOCTYPE svg PUBLIC "-//W3C//DTD SVG 1.1//EN" "http://www.w3.org/Graphics/SVG/1.1/DTD/svg11.dtd">
<svg version="1.1" id="Layer_1" xmlns="http://www.w3.org/2000/svg" xmlns:xlink="http://www.w3.org/1999/xlink" x="0px" y="0px"
	 width="100%" height="100%" viewBox="0 0 110 1025" enable-background="new 0 0 110 1025" xml:space="preserve">

<defs>
<linearGradient id="blue_water" x1="0%" y1="0%" x2="0%" y2="100%">
<stop offset="0%" style="stop-color:rgb(41,171,226);
stop-opacity:1"/>
<stop offset="100%" style="stop-color:rgb(0,113,188);
stop-opacity:1"/>
</linearGradient>
</defs>

<path fill="url(#blue_water)" d="M105,971.5L7.5,971L7.167,53c0,0,12.396-33.063,26.833-28.25C34.75,25,29.25,29,27,35
	c-3.552,9.471,3.148,15.186,6,10.75c4.5-7,12.434-19.544,17-16.5c0.75,0.5-8.25,4-4.75,13.75c1.666,4.641,8.279,4.422,10.5,3.25
	c9-4.75,6.75-21.75,22.25-21.5c1.04,0.017-9,7-7,15c1.24,4.958,4.576,7.759,7.75,6.5C84,44.167,84.25,29.5,93.5,32
	c0.998,0.27-5.097,7.358-3.25,13.25c1.75,5.583,4.5,0.75,9.963,2.166c2.584,0.669,4.037,5.334,4.037,5.334L105,971.5z"/>
<path fill="#FCEE21" d="M7.333,970.167c0-3.187,8.151-5.657,11.333-5.833c3.855-0.213,11.575,0.951,15.333,1.833
	c4.409,1.035,13.217,3.156,17.667,4c9.667,1.834,20.796-4.052,27.833-4.333c8.334-0.333,14.064,2.738,18.666,4
	c1.121,0.308,4.878,1.021,5.668,2.333c2.025,3.37-0.814,11.749-2.668,15.5c-6.521,13.2-18.166,30.334-49.333,32.167
	c-15.249,0.896-44.5-19.667-45-41.333"/>
<path fill="none" stroke="#B31212" stroke-width="5" d="M104.632,969.568c0,27.336-22.161,49.497-49.498,49.497l0,0
	c-27.337,0-49.498-22.161-49.498-49.497V56.114c0-27.337,22.161-49.498,49.498-49.498l0,0c27.336,0,49.498,22.161,49.498,49.498
	V969.568z"/>
</svg>
