<?xml version="1.0" encoding="utf-8"?>
<!-- Generator: Adobe Illustrator 13.0.0, SVG Export Plug-In . SVG Version: 6.00 Build 14948)  -->
<!DOCTYPE svg PUBLIC "-//W3C//DTD SVG 1.1//EN" "http://www.w3.org/Graphics/SVG/1.1/DTD/svg11.dtd">
<svg version="1.1" id="Layer_1" xmlns="http://www.w3.org/2000/svg" xmlns:xlink="http://www.w3.org/1999/xlink" x="0px" y="0px"
	 width="157.423px" height="203.752px" viewBox="0 0 157.423 203.752" enable-background="new 0 0 157.423 203.752"
	 xml:space="preserve">
<g>
	<g>
		<rect x="47.409" y="21.333" fill="#272626" width="62.228" height="31.266"/>
	</g>
	<g>
		<rect x="48.614" y="27.986" fill="#444140" width="60.338" height="5.336"/>
	</g>
	<g>
		<ellipse fill="#447FAB" cx="78.776" cy="19.782" rx="22.083" ry="19.282"/>
		<path fill="#689DCD" d="M78.776,0c12.452,0,22.583,8.874,22.583,19.782S91.228,39.565,78.776,39.565S56.193,30.69,56.193,19.782
			S66.324,0,78.776,0L78.776,0z M78.776,38.565c11.901,0,21.583-8.426,21.583-18.783C100.359,9.426,90.677,1,78.776,1
			S57.193,9.426,57.193,19.782C57.193,30.14,66.875,38.565,78.776,38.565L78.776,38.565z"/>
	</g>
	<g>
		<rect x="66.432" y="9.639" fill="#594958" width="25.07" height="11.02"/>
	</g>
	<g>
		<g>
			<path fill="#7380AC" d="M78.776,41.196c12.196,0,22.083-8.633,22.083-19.282S90.972,2.632,78.776,2.632
				s-22.083,8.633-22.083,19.282S66.58,41.196,78.776,41.196z M67.317,10.976h23.275v13.738H67.317V10.976z"/>
			<path fill="#B7B0D0" d="M78.776,1.632c12.729,0,23.083,9.099,23.083,20.282S91.504,42.196,78.776,42.196
				c-12.728,0-23.083-9.099-23.083-20.282S66.048,1.632,78.776,1.632L78.776,1.632z M78.776,40.196
				c11.625,0,21.083-8.201,21.083-18.282S90.401,3.632,78.776,3.632s-21.083,8.201-21.083,18.282S67.151,40.196,78.776,40.196
				L78.776,40.196z M66.317,9.976h25.275v15.738H66.317V9.976L66.317,9.976z M89.592,11.976H68.317v11.738h21.275V11.976
				L89.592,11.976z"/>
		</g>
	</g>
	<g>
		<rect x="55.195" y="17.849" fill="#272626" width="47.389" height="29.755"/>
	</g>
	<g>
		<rect x="56.046" y="23.911" fill="#858282" width="45.459" height="20.111"/>
	</g>
	<g>
		<ellipse fill="#6488B5" cx="78.957" cy="159.03" rx="22.083" ry="19.282"/>
		<path fill="#B7B0D0" d="M78.957,139.248c12.452,0,22.583,8.874,22.583,19.782s-10.131,19.782-22.583,19.782
			s-22.583-8.874-22.583-19.782S66.504,139.248,78.957,139.248L78.957,139.248z M78.957,177.812
			c11.901,0,21.583-8.426,21.583-18.782s-9.682-18.782-21.583-18.782s-21.583,8.426-21.583,18.782S67.055,177.812,78.957,177.812
			L78.957,177.812z"/>
	</g>
	<g>
		<ellipse fill="#447FAB" cx="78.428" cy="155.955" rx="22.083" ry="19.282"/>
		<path fill="#689DCD" d="M78.428,135.672c12.729,0,23.083,9.099,23.083,20.282s-10.354,20.282-23.083,20.282
			s-23.084-9.099-23.084-20.282S65.7,135.672,78.428,135.672L78.428,135.672z M78.428,174.237c11.625,0,21.083-8.201,21.083-18.282
			s-9.458-18.282-21.083-18.282c-11.626,0-21.084,8.201-21.084,18.282S66.802,174.237,78.428,174.237L78.428,174.237z"/>
	</g>
	<g>
		<rect x="46.194" y="135.115" fill="#231F20" width="64.688" height="24.341"/>
	</g>
	<g>
		
			<rect x="52.651" y="154.807" transform="matrix(-0.9001 0.4357 -0.4357 -0.9001 175.9287 299.3729)" fill="#2C3738" width="1.977" height="30.101"/>
	</g>
	<g>
		
			<rect x="24.946" y="154.808" transform="matrix(0.9001 0.4357 -0.4357 0.9001 76.6011 5.6714)" fill="#2C3738" width="1.977" height="30.101"/>
	</g>
	<g>
		<g>
			<path fill="#2C3738" d="M31.665,163.715c0.744,3.824,2.141,8.995,3.088,12.354c0.507,2.064,0.877,3.517,0.877,3.517l-0.103,6.44
				l4.261-0.078l4.259,0.078l-0.104-6.44c0,0,0.37-1.452,0.878-3.517c0.947-3.359,2.344-8.53,3.088-12.354
				c0.369-1.896,0.943-6.127,1.539-10.982H30.125C30.72,157.588,31.296,161.82,31.665,163.715z"/>
		</g>
		<g>
			<path fill="#6B6A69" d="M25.934,65.243c0,0,1.812,61.381,1.867,64.898c0.035,2.289,1.215,13.527,2.324,22.592h19.322
				c1.109-9.064,2.289-20.303,2.324-22.592c0.057-3.517,1.867-64.898,1.867-64.898l-0.043-0.107H25.978L25.934,65.243z"/>
		</g>
		<g>
			<path fill="#6B6A69" d="M50.869,48.618c-0.304-1.129-1.21-3.283-2.565-5.441c-1.299-2.208-3.005-4.299-5.205-5.423
				c-0.973-0.537-2.012-0.857-3.1-0.857c-0.072,0-0.141,0.005-0.211,0.007c-0.072-0.002-0.141-0.007-0.213-0.007
				c-1.088,0-2.125,0.32-3.1,0.857c-2.201,1.124-3.906,3.215-5.205,5.423c-1.355,2.158-2.262,4.313-2.565,5.441
				c-1.487,5.527-1.493,13.535-1.493,13.535H52.36C52.36,62.153,52.356,54.146,50.869,48.618z"/>
		</g>
		<g>
			<polygon fill="#858282" points="53.596,65.136 52.36,62.153 27.211,62.153 25.978,65.136 			"/>
		</g>
	</g>
	<g>
		<path fill="#626161" d="M37.967,182.309c0,0.835,0.678,1.512,1.514,1.512l0,0c0.835,0,1.513-0.677,1.513-1.512v-24.9
			c0-0.835-0.678-1.513-1.513-1.513l0,0c-0.836,0-1.514,0.678-1.514,1.513V182.309z"/>
	</g>
	<g>
		<path fill="#142425" d="M16.424,198.097c1.143,2.84,1.119,5.597,1.119,5.597h18.527h7.706h18.526c0,0-0.024-2.757,1.119-5.597
			c1.119-2.78,3.209-6.824,3.209-10.882c0-3.8-1.401-5.307-1.401-5.307H43.777h-7.706H14.618c0,0-1.402,1.507-1.402,5.307
			C13.215,191.273,15.305,195.317,16.424,198.097z"/>
	</g>
	<g>
		
			<rect x="130.154" y="154.867" transform="matrix(-0.9 0.4359 -0.4359 -0.9 323.2374 265.6755)" fill="#2C3738" width="1.976" height="30.101"/>
	</g>
	<g>
		
			<rect x="102.448" y="154.867" transform="matrix(0.9001 0.4357 -0.4357 0.9001 84.3707 -28.0915)" fill="#2C3738" width="1.977" height="30.101"/>
	</g>
	<g>
		<g>
			<path fill="#2C3738" d="M109.167,163.773c0.744,3.824,2.14,8.996,3.088,12.356c0.507,2.063,0.877,3.516,0.877,3.516l-0.104,6.44
				l4.26-0.078l4.261,0.078l-0.104-6.44c0,0,0.37-1.452,0.877-3.516c0.948-3.36,2.344-8.532,3.088-12.356
				c0.369-1.895,0.944-6.126,1.539-10.982h-19.321C108.224,157.647,108.798,161.878,109.167,163.773z"/>
		</g>
		<g>
			<path fill="#6B6A69" d="M103.436,65.301c0,0,1.813,61.381,1.867,64.898c0.036,2.29,1.216,13.529,2.325,22.591h19.321
				c1.11-9.063,2.289-20.302,2.325-22.591c0.056-3.518,1.867-64.898,1.867-64.898l-0.044-0.106h-27.617L103.436,65.301z"/>
		</g>
		<g>
			<path fill="#6B6A69" d="M128.371,48.677c-0.304-1.129-1.209-3.284-2.564-5.44c-1.301-2.21-3.005-4.3-5.205-5.425
				c-0.974-0.535-2.012-0.857-3.1-0.857c-0.071,0-0.142,0.006-0.213,0.008c-0.07-0.002-0.14-0.008-0.212-0.008
				c-1.088,0-2.126,0.322-3.099,0.857c-2.201,1.125-3.905,3.215-5.206,5.425c-1.355,2.156-2.262,4.312-2.564,5.44
				c-1.488,5.527-1.492,13.535-1.492,13.535h25.147C129.863,62.212,129.859,54.204,128.371,48.677z"/>
		</g>
		<g>
			<polygon fill="#858282" points="131.098,65.194 129.863,62.212 104.715,62.212 103.481,65.194 			"/>
		</g>
	</g>
	<g>
		<rect x="55.362" y="154.875" fill="#4E4F50" width="46.914" height="6.603"/>
	</g>
	<g>
		<g>
			<path fill="#737070" d="M40.438,96.708c0.867,18.732-4.883,37.425-2.84,56.083h0.664c0.584-9.584,1.795-19.095,2.719-28.644
				c1.072-11.102,1.348-22.233,1.451-33.399c0.078-8.494,0.118-17.05-0.296-25.553h-4.05C38.93,75.692,39.952,86.177,40.438,96.708z
				"/>
		</g>
		<g>
			<path fill="#CDCBCA" d="M31.053,130.199c0.025,2.29,0.854,13.529,1.636,22.591h3.816c-1.964-18.687,3.751-37.325,2.835-56.083
				c-0.514-10.531-1.521-21.013-2.354-31.513h-7.215l-0.031,0.106C29.741,65.301,31.014,126.682,31.053,130.199z"/>
		</g>
		<g>
			<path fill="#938F8F" d="M43.522,91.566c-0.129,11.17-0.412,22.292-1.523,33.396c-0.928,9.271-2.076,18.519-2.641,27.829h6.916
				c0.779-9.063,1.608-20.302,1.635-22.591c0.037-3.518,1.313-64.898,1.313-64.898l-0.031-0.106h-5.969
				C43.647,73.97,43.624,82.795,43.522,91.566z"/>
		</g>
		<g>
			<path fill="#AEACAB" d="M39.217,58.173c0.105,1.344,0.199,2.69,0.281,4.039h8.822c0,0-0.002-8.008-1.049-13.535
				c-0.213-1.129-0.85-3.284-1.803-5.44c-0.914-2.21-1.687-3.021-3.234-4.145c-0.355-0.28-0.727-0.5-1.107-0.648
				C41.745,45.451,38.661,51.149,39.217,58.173z"/>
		</g>
		<g>
			<path fill="#88949A" d="M33.325,46.226c-1.103,6.373-0.316,10.818,0.055,15.928l4.768,0.059c-0.101-1.622-0.217-3.24-0.357-4.854
				c-0.59-6.812,0.178-13.335,1.785-19.121c-0.031,0.002-0.063,0.003-0.094,0.005c-0.051-0.002-0.099-0.008-0.149-0.008
				c-0.752,0-1.47,0.313-2.146,0.834C34.59,41.196,33.842,43.237,33.325,46.226z"/>
		</g>
	</g>
	<g>
		<g>
			<path fill="#737070" d="M117.849,96.708c0.867,18.732-4.884,37.425-2.84,56.083h0.663c0.585-9.584,1.796-19.095,2.719-28.644
				c1.072-11.102,1.349-22.233,1.451-33.399c0.079-8.494,0.118-17.05-0.296-25.553h-4.049
				C116.341,75.692,117.362,86.177,117.849,96.708z"/>
		</g>
		<g>
			<path fill="#CDCBCA" d="M108.464,130.199c0.025,2.29,0.854,13.529,1.635,22.591h3.817c-1.964-18.687,3.751-37.325,2.835-56.083
				c-0.515-10.531-1.522-21.013-2.354-31.513h-7.216l-0.03,0.106C107.152,65.301,108.425,126.682,108.464,130.199z"/>
		</g>
		<g>
			<path fill="#938F8F" d="M120.932,91.566c-0.129,11.17-0.412,22.292-1.523,33.396c-0.928,9.271-2.076,18.519-2.64,27.829h6.915
				c0.78-9.063,1.609-20.302,1.635-22.591c0.039-3.518,1.313-64.898,1.313-64.898l-0.03-0.106h-5.969
				C121.057,73.97,121.034,82.795,120.932,91.566z"/>
		</g>
		<g>
			<path fill="#C1BEBD" d="M120.189,58.173c0.107,1.344,0.2,2.69,0.282,4.039h5.262c0,0-0.003-8.008-1.05-13.535
				c-0.213-1.129-0.85-3.284-1.804-5.44c-0.914-2.21-2.112-4.3-3.66-5.425c-0.356-0.279-0.727-0.498-1.106-0.646
				C118.729,44.173,119.632,51.149,120.189,58.173z"/>
		</g>
		<g>
			<path fill="#938F8F" d="M114.321,46.879c0.353,5.108,0.579,10.224,0.95,15.333h4.11c-0.102-1.622-0.218-3.24-0.358-4.854
				c-0.591-6.812-1.453-13.592-2.037-20.399c-0.031,0.002-0.063,0.003-0.094,0.004c-0.051-0.002-0.1-0.008-0.149-0.008
				c-0.753,0-1.472,0.313-2.146,0.835C114.336,40.82,114.111,43.853,114.321,46.879z"/>
		</g>
	</g>
	<g>
		<path fill="#E0BD1B" d="M2.092,106.435c1.064,4.05,9.021,13.072,14.35,16.554c4.326,2.826,21.904,13.201,27.475,17.275
			c7.197,5.266,11.094,11.938,12.522,18.176c0.708,3.088,0.326,5.963,4.851,8.565c2.693,1.549,4.077,2.67,8.553,3.949
			c3.08,0.88,6.424,1.082,8.21,1.122l0.018,0.003c0,0,0.233,0.008,0.641,0.006c0.408,0.002,0.641-0.006,0.641-0.006l0.018-0.003
			c1.787-0.04,5.13-0.242,8.21-1.122c4.476-1.279,5.859-2.4,8.554-3.949c4.523-2.603,4.143-5.478,4.85-8.565
			c1.429-6.237,5.326-12.91,12.524-18.176c5.568-4.074,23.147-14.449,27.473-17.275c5.329-3.481,13.285-12.504,14.352-16.554
			c1.212-4.608,3.686-14.675-8.313-23.941c-11.296-8.724-18.897-12.362-24.651-16.836c-5.015-3.9-13.091-12.748-17.549-21.03
			c-3.802-7.063-8.81-14.491-8.81-14.491s0-1.279-4.617-2.346c-2.627-0.605-8.258-1.821-11.606-1.821
			c-0.358,0-0.717,0.005-1.076,0.015c-0.358-0.01-0.718-0.015-1.075-0.015c-3.349,0-8.979,1.216-11.606,1.821
			c-4.617,1.066-4.617,2.346-4.617,2.346s-5.008,7.428-8.81,14.491c-4.456,8.282-12.534,17.13-17.548,21.03
			C29.301,70.132,21.7,73.77,10.404,82.494C-1.595,91.759,0.878,101.826,2.092,106.435z"/>
		<path fill="#D98524" d="M77.636,24.969c0.367,0,0.735,0.005,1.103,0.015c0.313-0.01,0.681-0.015,1.048-0.015
			c3.155,0,8.175,1.004,11.831,1.847c3.989,0.922,5.094,2.116,5.335,2.93c0.767,1.148,5.281,7.967,8.748,14.408
			c4.214,7.829,12.096,16.681,17.281,20.715c2.384,1.854,5.129,3.586,8.308,5.592c4.35,2.745,9.764,6.162,16.342,11.242
			c12.668,9.783,9.865,20.438,8.668,24.987c-1.181,4.485-9.589,13.75-14.771,17.137c-1.502,0.981-4.594,2.868-8.174,5.054
			c-6.967,4.252-15.638,9.544-19.256,12.19c-6.282,4.597-10.594,10.845-12.14,17.593c-0.12,0.522-0.206,1.038-0.293,1.548
			c-0.438,2.596-0.894,5.279-5.032,7.66c-0.464,0.267-0.888,0.521-1.296,0.765c-1.964,1.174-3.659,2.188-7.481,3.28
			c-3.167,0.904-6.591,1.114-8.395,1.158l-0.078,0.005c0,0-0.204,0.006-0.566,0.006h-0.213c-0.362,0-0.565-0.006-0.565-0.006
			l-0.092-0.005c-1.807-0.045-5.223-0.256-8.38-1.158c-3.824-1.093-5.52-2.107-7.482-3.281c-0.407-0.243-0.831-0.497-1.294-0.764
			c-4.14-2.38-4.595-5.063-5.034-7.659c-0.086-0.51-0.173-1.026-0.293-1.549c-1.546-6.749-5.856-12.996-12.139-17.593
			c-3.618-2.646-12.289-7.938-19.257-12.191c-3.58-2.185-6.672-4.072-8.174-5.053c-5.184-3.387-13.592-12.653-14.77-17.137
			c-1.198-4.549-4.005-15.202,8.667-24.987c6.578-5.08,11.992-8.497,16.342-11.242c3.179-2.006,5.924-3.738,8.307-5.592
			c5.188-4.036,13.07-12.888,17.281-20.715c3.467-6.441,7.981-13.26,8.749-14.408c0.241-0.813,1.345-2.008,5.334-2.93
			C69.462,25.973,74.483,24.969,77.636,24.969L77.636,24.969z M78.739,26.983c-0.404-0.01-0.754-0.015-1.103-0.015
			c-3.122,0-8.471,1.125-11.382,1.796c-2.878,0.664-3.666,1.363-3.842,1.564v0.112l-0.171,0.253
			c-0.05,0.074-5.024,7.47-8.758,14.406c-4.337,8.061-12.463,17.183-17.814,21.346c-2.461,1.914-5.245,3.671-8.468,5.705
			c-4.314,2.723-9.684,6.112-16.187,11.134c-11.622,8.975-9.053,18.729-7.956,22.895c0.979,3.721,8.659,12.527,13.93,15.972
			c1.477,0.964,4.556,2.844,8.122,5.021c6.999,4.271,15.709,9.587,19.396,12.284c6.671,4.881,11.254,11.543,12.907,18.761
			c0.129,0.561,0.223,1.114,0.315,1.661c0.412,2.43,0.737,4.35,4.06,6.26c0.473,0.272,0.906,0.531,1.323,0.781
			c1.919,1.146,3.434,2.053,7.005,3.074c2.991,0.854,6.27,1.045,7.958,1.083l0.101,0.006c0.082,0.001,0.228,0.003,0.429,0.003h0.213
			c0.201,0,0.348-0.002,0.429-0.003l0-0.001l0.101-0.005c1.688-0.038,4.967-0.229,7.958-1.083c3.57-1.021,5.086-1.927,7.005-3.074
			c0.417-0.249,0.852-0.509,1.325-0.781c3.321-1.911,3.646-3.83,4.058-6.261c0.093-0.547,0.187-1.101,0.315-1.66
			c1.652-7.217,6.237-13.88,12.908-18.761c3.686-2.695,12.396-8.012,19.395-12.283c3.566-2.177,6.646-4.057,8.122-5.021
			c5.271-3.443,12.951-12.25,13.931-15.971c1.097-4.166,3.663-13.922-7.956-22.895c-6.503-5.022-11.872-8.411-16.187-11.134
			c-3.223-2.034-6.007-3.791-8.468-5.705c-5.35-4.161-13.476-13.283-17.814-21.346c-3.733-6.937-8.709-14.332-8.759-14.406
			l-0.171-0.253v-0.112c-0.175-0.201-0.964-0.9-3.842-1.564c-2.909-0.671-8.258-1.796-11.381-1.796
			C79.438,26.969,79.088,26.974,78.739,26.983L78.739,26.983z"/>
	</g>
	<g>
		<path fill="#E5AC23" d="M58.717,102.462c0,0,1.473-16.446,5.641-25.678s9.811-25.708,9.874-32.762
			c0.064-7.054,0.369-14.556,0.369-14.556l-11.366,1.187c0,0-4.553,10.543-10.875,18.871c-5.643,7.434-14.129,16.296-20.765,20.912
			S10.932,82.776,8.225,87.17c-4.039,6.559-2.15,17.545-2.15,17.545s-0.44-17.667,18.02-27.354
			c10.343-5.429,16.022-2.04,24.227-15.149c6.771-10.819,13.461-22.087,14.914-23.769c1.453-1.68,4.099-3.654,3.396,2.753
			c-0.703,6.407-2.377,10.486-3.416,18.854c-1.037,8.368-8.088,27.173-6.871,32.025C57.562,96.929,58.717,102.462,58.717,102.462z"
			/>
		<path fill="#F6D038" d="M74.862,29.188l-0.012,0.288c-0.003,0.075-0.306,7.579-0.369,14.548
			c-0.064,7.188-5.893,23.994-9.896,32.863c-4.103,9.087-5.604,25.434-5.619,25.598l-0.494,0.029
			c-0.011-0.056-1.168-5.585-2.37-10.377c-0.729-2.903,1.419-10.624,3.496-18.09c1.446-5.199,2.941-10.574,3.369-14.027
			c0.538-4.331,1.23-7.448,1.899-10.463c0.605-2.727,1.178-5.301,1.517-8.388c0.288-2.635-0.021-3.6-0.33-3.945
			c-0.479-0.534-1.496,0.072-2.629,1.383c-0.925,1.07-4.026,6.119-7.952,12.512c-2.149,3.501-4.539,7.392-6.939,11.227
			c-5.621,8.982-10.03,10.277-15.612,11.917c-2.537,0.746-5.412,1.59-8.71,3.321c-18.102,9.5-17.89,26.952-17.886,27.127
			l-0.496,0.049c-0.02-0.111-1.858-11.156,2.184-17.719c1.955-3.174,9.574-7.963,16.297-12.189c2.689-1.691,5.23-3.288,7.144-4.619
			C37.536,66,46.05,57.423,52.161,49.373c6.23-8.207,10.799-18.714,10.845-18.818l0.058-0.135L74.862,29.188L74.862,29.188z
			 M58.632,100.868c0.489-4.347,2.115-16.694,5.498-24.187c3.985-8.829,9.788-25.541,9.852-32.661
			c0.056-6.203,0.302-12.828,0.357-14.275l-10.934,1.142c-0.557,1.258-4.963,11.038-10.847,18.789
			c-6.139,8.086-14.7,16.708-20.821,20.966c-1.922,1.337-4.468,2.938-7.163,4.632c-6.676,4.197-14.242,8.954-16.137,12.028
			c-2.754,4.472-2.702,11.122-2.415,14.76c0.701-5.349,3.853-17.521,17.955-24.922c3.342-1.754,6.242-2.606,8.801-3.358
			c5.48-1.61,9.81-2.882,15.33-11.703c2.399-3.833,4.788-7.723,6.938-11.223c3.938-6.411,7.048-11.476,7.999-12.576
			c0.565-0.654,1.652-1.75,2.582-1.75c0.315,0,0.584,0.121,0.798,0.359c0.558,0.621,0.706,2.039,0.454,4.334
			c-0.341,3.113-0.916,5.701-1.524,8.441c-0.667,3.003-1.356,6.108-1.892,10.416c-0.433,3.49-1.866,8.644-3.384,14.1
			c-2.06,7.403-4.188,15.059-3.493,17.833C57.405,95.275,58.202,98.875,58.632,100.868L58.632,100.868z"/>
	</g>
	<g>
		<path fill="#EAD073" d="M74.232,147.286c0,0,2.145,2.776,2.001-16.358c-0.144-19.135,4.252-59.194,2.319-67.225
			c-1.934-8.031-1.914-11.104-1.914-11.104s-11.63,37.69-8.866,60.104C70.537,135.115,74.232,147.286,74.232,147.286z"/>
		<path fill="#F2D7B7" d="M76.399,52.525l0.489,0.074c0,0.031,0.007,3.151,1.907,11.044c1.115,4.631,0.158,19.571-0.855,35.388
			c-0.747,11.659-1.519,23.714-1.457,31.894c0.051,6.798-0.169,15.184-1.507,16.532c-0.144,0.145-0.301,0.219-0.468,0.219
			c-0.281,0-0.455-0.214-0.473-0.238c-0.079-0.202-3.775-12.527-6.51-34.705C64.786,90.523,76.283,52.902,76.399,52.525
			L76.399,52.525z M74.471,147.212c0.063-0.036,0.105-0.063,0.149-0.106c0.443-0.446,1.462-2.916,1.362-16.177
			c-0.062-8.198,0.711-20.262,1.458-31.929c1.011-15.778,1.965-30.682,0.868-35.239c-1.219-5.063-1.665-8.148-1.828-9.757
			c-2.011,6.894-10.895,38.928-8.461,58.667C70.75,134.801,74.434,147.091,74.471,147.212L74.471,147.212z"/>
	</g>
	<g>
		<path fill="#EAD073" d="M134.098,122.657c0,0,15.037-6.446,17.249-16.122c2.212-9.675,1.735-12.806-10.044-19.902
			c-14.532-8.758-24.628-13.545-34.151-25.708c-9.524-12.164-15.426-18.471-15.649-21.859c-0.224-3.391-0.785-8.412-0.785-8.412
			s-5.889-2.667-12.289-2.667s-11.996,2.667-11.996,2.667s6.764,0,11.996-0.31c6.122-0.364,9.454,2.382,9.454,2.382
			s-6.159,0.729,1.654,14.878c7.814,14.149,10.943,30.735,10.943,30.735s4.433-3.581,15.142,1.711
			c10.709,5.293,24.931,10.256,28.513,16.326c4.146,7.027,3.317,12.322,0,15.664C140.817,115.381,134.098,122.657,134.098,122.657z"
			/>
		<path fill="#F2D7B7" d="M78.428,27.486c6.435,0,12.251,2.601,12.495,2.712l0.26,0.117l0.031,0.282
			c0.006,0.051,0.565,5.072,0.787,8.435c0.158,2.393,3.549,6.604,9.167,13.582c1.884,2.339,4.019,4.99,6.377,8.002
			c8.039,10.267,16.314,15.138,27.769,21.88c1.991,1.172,4.069,2.396,6.248,3.708c11.846,7.137,12.557,10.45,10.272,20.441
			c-2.242,9.811-16.916,16.203-17.54,16.47l-0.563-0.799c0.066-0.073,6.763-7.321,10.048-10.63
			c3.563-3.589,3.537-8.937-0.075-15.058c-2.624-4.446-11.456-8.425-19.996-12.273c-2.791-1.257-5.678-2.558-8.308-3.858
			c-3.818-1.887-7.24-2.844-10.172-2.844c-3.032,0-4.423,1.064-4.437,1.075l-0.647,0.508l-0.155-0.807
			c-0.031-0.165-3.206-16.674-10.89-30.586c-3.655-6.621-4.833-11.297-3.497-13.897c0.344-0.67,0.8-1.081,1.209-1.332
			c-1.276-0.742-4.143-2.02-8.353-1.773c-5.188,0.307-11.958,0.311-12.026,0.311l-0.215-0.951
			C66.45,30.091,71.989,27.486,78.428,27.486L78.428,27.486z M90.252,30.998c-1.196-0.5-6.355-2.512-11.824-2.512
			c-3.66,0-7.082,0.901-9.284,1.646c2.451-0.029,6.142-0.104,9.255-0.288c6.25-0.375,9.668,2.385,9.801,2.495l0.904,0.745
			l-1.163,0.137c-0.033,0.005-0.93,0.143-1.463,1.211c-0.646,1.293-1.052,4.692,3.496,12.93
			c6.86,12.422,10.159,26.878,10.855,30.187c0.764-0.381,2.2-0.894,4.398-0.894c3.086,0,6.657,0.992,10.615,2.947
			c2.614,1.292,5.491,2.589,8.274,3.843c8.684,3.912,17.662,7.958,20.447,12.677c5.215,8.836,2.19,13.987-0.076,16.27
			c-2.206,2.222-5.962,6.234-8.196,8.635c4.283-2.255,12.968-7.606,14.567-14.604c2.225-9.733,1.624-12.471-9.814-19.362
			c-2.175-1.311-4.25-2.532-6.239-3.703c-11.113-6.542-19.893-11.709-28.048-22.125c-2.354-3.007-4.487-5.655-6.368-7.992
			c-5.938-7.373-9.208-11.435-9.387-14.143C90.814,36.222,90.375,32.114,90.252,30.998L90.252,30.998z"/>
	</g>
	<g>
		<path fill="#E5AC23" d="M90.391,147.426c0,0-0.017,2.21,0.127-16.925c0.145-19.135-4.252-59.194-2.318-67.225
			s1.934-8.031,1.934-8.031s11.609,34.618,8.846,57.03C96.214,134.689,90.391,147.426,90.391,147.426z"/>
		<path fill="#F6D038" d="M90.093,54.341l0.276,0.825c0.117,0.347,11.597,34.929,8.857,57.14
			c-2.677,21.705-8.134,34.169-8.587,35.175l-0.001,0.195l-0.353,0.077l-0.147-0.147l0.003-0.182h-0.001l0.127-16.925
			c0.062-8.18-0.71-20.234-1.457-31.893c-1.013-15.817-1.97-30.758-0.854-35.389L90.093,54.341L90.093,54.341z M90.651,146.161
			c1.457-3.626,5.82-15.594,8.08-33.916c2.487-20.168-6.828-50.646-8.563-56.08l-1.726,7.17c-1.098,4.558-0.143,19.461,0.867,35.24
			c0.747,11.667,1.52,23.731,1.458,31.929L90.651,146.161L90.651,146.161z"/>
	</g>
	<g>
		<path fill="#EAD073" d="M94.544,165.254c0,0-8.063,4.731-15.966,4.662c-6.756-0.058-15.344-4.662-15.344-4.662
			s10.629,2.542,15.193,2.542C83.418,167.796,94.544,165.254,94.544,165.254z"/>
		<path fill="#F2D7B7" d="M94.489,165.01l0.182,0.46c-0.08,0.047-8.097,4.697-15.92,4.697l-0.173-0.001
			c-6.74-0.058-15.373-4.646-15.46-4.692l0.177-0.463c0.105,0.025,10.652,2.535,15.135,2.535
			C83.333,167.546,94.377,165.036,94.489,165.01L94.489,165.01z M78.75,169.667c5.606,0,11.328-2.438,14.044-3.775
			c-3.372,0.715-10.62,2.154-14.366,2.154c-3.342,0-9.789-1.324-13.135-2.065c2.915,1.344,8.584,3.646,13.287,3.686L78.75,169.667
			L78.75,169.667z"/>
	</g>
	<g>
		<circle fill="#B9912E" cx="78.957" cy="117.933" r="4.725"/>
	</g>
	<g>
		<circle fill="#CAAF21" cx="78.957" cy="117.934" r="4.356"/>
	</g>
	<g>
		<circle fill="#777573" cx="78.957" cy="117.933" r="2.362"/>
	</g>
	<g>
		<circle fill="#B9912E" cx="78.88" cy="96.376" r="17.033"/>
	</g>
	<g>
		<circle fill="#9C7930" cx="78.88" cy="96.376" r="16.327"/>
	</g>
	<g>
		<circle fill="#BFBAB4" cx="78.88" cy="96.376" r="15.665"/>
	</g>
	<g>
		<path fill="#231F20" d="M77.373,95.644l-12.257-3.769c-0.49,1.46-0.758,3.021-0.758,4.644c0,5.106,2.623,9.599,6.592,12.21
			l7.113-10.451c0.335,0.228,0.739,0.363,1.175,0.363c0.026,0,0.051-0.006,0.077-0.008l2.528,12.209
			c6.458-1.29,11.379-6.836,11.713-13.589l-12.237-0.664c0-0.011,0.003-0.021,0.003-0.032c0-0.53-0.205-1.009-0.531-1.378
			l8.801-8.68c-2.663-2.823-6.437-4.588-10.625-4.588c-2.47,0-4.796,0.616-6.835,1.698l5.775,11.273
			c0.039-0.006,0.076-0.007,0.113-0.008C77.744,95.071,77.524,95.336,77.373,95.644z M78.261,94.726
			c-0.043,0.024-0.088,0.044-0.129,0.07C78.17,94.768,78.214,94.745,78.261,94.726z"/>
	</g>
	<g>
		<circle fill="#9B9796" cx="78.88" cy="96.376" r="2.647"/>
		<path fill="#7C7A79" d="M78.88,93.229c1.735,0,3.146,1.412,3.146,3.147s-1.412,3.147-3.146,3.147
			c-1.735,0-3.147-1.412-3.147-3.147S77.145,93.229,78.88,93.229L78.88,93.229z M78.88,98.523c1.184,0,2.146-0.963,2.146-2.147
			s-0.963-2.147-2.146-2.147c-1.184,0-2.147,0.963-2.147,2.147S77.696,98.523,78.88,98.523L78.88,98.523z"/>
	</g>
	<g>
		<path fill="#626161" d="M115.471,182.367c0,0.835,0.677,1.514,1.512,1.514l0,0c0.836,0,1.513-0.679,1.513-1.514v-24.899
			c0-0.836-0.677-1.513-1.513-1.513l0,0c-0.835,0-1.512,0.677-1.512,1.513V182.367z"/>
	</g>
	<g>
		<path fill="#142425" d="M93.927,198.156c1.144,2.84,1.118,5.597,1.118,5.597h18.527h7.706h18.527c0,0-0.025-2.757,1.118-5.597
			c1.12-2.78,3.21-6.825,3.21-10.882c0-3.801-1.402-5.307-1.402-5.307h-21.453h-7.706H92.12c0,0-1.402,1.506-1.402,5.307
			C90.717,191.331,92.807,195.375,93.927,198.156z"/>
	</g>
	<g>
		<rect x="55.621" y="20.301" fill="#6488B5" width="45.863" height="2.063"/>
		<path fill="#B7B0D0" d="M55.121,19.801h46.863v3.063H55.121V19.801L55.121,19.801z M100.984,20.801H56.121v1.063h44.863V20.801
			L100.984,20.801z"/>
	</g>
	<g>
		<path fill="#1E3744" d="M103.846,198.448c0.659,1.951,0.855,3.862,0.914,4.867h12.799c-0.092-2.106-0.629-4.102-1.298-6.072
			c-1.321-2.607-3.072-5.738-0.821-7.766c0.515-0.464,1.189-0.638,1.818-0.813c0.889-0.652,11.299-0.204,14.447-0.204
			c1.577,0,2.393-1.718,2.393-2.082c0-1.68-1.324-2.482-2.362-2.482h-28.888c-0.014,0.008-0.024,0.019-0.04,0.025
			c-0.595,0.312-1.058,0.714-1.463,1.168c-0.59,0.774-0.865,1.277-0.865,2.251C100.48,191.397,102.907,195.667,103.846,198.448z"/>
	</g>
	<g>
		<path fill="#1E3744" d="M24.525,198.448c0.659,1.951,0.856,3.862,0.915,4.867h12.799c-0.092-2.106-0.629-4.102-1.298-6.072
			c-1.321-2.607-3.073-5.738-0.822-7.766c0.516-0.464,1.19-0.638,1.818-0.813c0.89-0.652,11.3-0.204,14.447-0.204
			c1.578,0,2.393-1.718,2.393-2.081c0-1.681-1.323-2.482-2.36-2.482H23.528c-0.015,0.007-0.025,0.018-0.04,0.024
			c-0.595,0.312-1.06,0.714-1.464,1.168c-0.59,0.774-0.865,1.277-0.865,2.251C21.159,191.397,23.585,195.667,24.525,198.448z"/>
	</g>
	<g>
		<path fill="#FFFFFF" d="M85.661,13.167c0,0-1.97-1.004-3.31-1.266c-1.779-0.347-3.383-0.421-3.383-0.421l0.464-4.462
			c0.508,0.021,2.689,0.14,4.248,0.621c2.462,0.76,4.203,1.799,4.203,1.799L85.661,13.167z"/>
	</g>
	<g>
		<path fill="#FFFFFF" d="M88.523,8.459c0,0-1.646-1.146-4.322-1.961c-2.561-0.78-4.77-0.716-4.77-0.716V3.985
			c0,0,2.796,0.129,5.079,0.759c2.345,0.648,5.027,2.19,5.027,2.19L88.523,8.459z"/>
	</g>
	<g>
		<path fill="#EAD073" d="M59.871,154.875c0,0-4.454-11.392-13.677-18.203c-9.222-6.812-29.433-18.043-34.218-23.263
			c-6.069-6.62-8.079-11.291-5.194-17.034c2.886-5.742,6.434-10.936,6.434-10.936s-6.809,8.935,5.274,14.573
			c12.081,5.638,19.078,5.356,22.034,0c2.957-5.356,8.924-8.804,8.924-8.804s-2.285,10.348,2.914,17.725
			c5.2,7.377,6.932,17.764,7.509,24.4C60.448,139.969,59.871,154.875,59.871,154.875z"/>
		<path fill="#F2D7B7" d="M12.818,85.137l0.811,0.585l-0.325,0.485c-0.67,1.084-2.117,3.918-1.207,6.971
			c0.759,2.544,2.981,4.691,6.605,6.382c5.796,2.705,10.535,4.077,14.087,4.077c3.476,0,5.862-1.264,7.298-3.865
			c2.989-5.416,8.862-8.852,9.111-8.995l0.982-0.567l-0.244,1.108c-0.022,0.102-2.174,10.224,2.834,17.33
			c5.144,7.296,6.971,17.429,7.599,24.644c0.573,6.591,0.008,21.455,0.002,21.604l-0.966,0.162
			c-0.044-0.112-4.514-11.34-13.508-17.982c-3.703-2.735-9.32-6.271-14.753-9.691c-8.179-5.148-16.636-10.472-19.536-13.636
			c-5.629-6.139-8.474-11.224-5.273-17.596c2.331-4.638,5.059-8.873,6.127-10.485C12.673,85.325,12.818,85.137,12.818,85.137
			L12.818,85.137z M32.789,104.637c-3.751,0-8.497-1.364-14.511-4.17c-3.894-1.817-6.296-4.173-7.14-7.003
			c-0.357-1.198-0.396-2.359-0.265-3.415c-1.129,1.868-2.441,4.156-3.646,6.552c-2.609,5.195-1.271,9.505,5.116,16.471
			c2.811,3.065,11.21,8.353,19.333,13.466c5.447,3.429,11.08,6.975,14.813,9.732c6.912,5.104,11.21,12.828,12.952,16.436
			c0.133-4.371,0.367-14.302-0.07-19.328c-0.617-7.093-2.405-17.041-7.419-24.155c-4.303-6.105-3.637-14.043-3.197-16.979
			c-1.776,1.197-5.636,4.101-7.795,8.011C39.357,103.163,36.607,104.637,32.789,104.637L32.789,104.637z"/>
	</g>
</g>
</svg>
