<?xml version="1.0" encoding="utf-8"?>
<!-- Generator: Adobe Illustrator 13.0.0, SVG Export Plug-In . SVG Version: 6.00 Build 14948)  -->
<!DOCTYPE svg PUBLIC "-//W3C//DTD SVG 1.1//EN" "http://www.w3.org/Graphics/SVG/1.1/DTD/svg11.dtd">
<svg version="1.1" id="Layer_1" xmlns="http://www.w3.org/2000/svg" xmlns:xlink="http://www.w3.org/1999/xlink" x="0px" y="0px"
	 width="267.039px" height="133.875px" viewBox="0 0 267.039 133.875" enable-background="new 0 0 267.039 133.875"
	 xml:space="preserve">
<g>
	<g>
		<g>
			<g>
				<path fill="#AEB0B3" d="M129.59,13.133c0,4.597-0.088,3.613-3.696,3.696c-3.079,0.071-3.876,0.58-3.697-3.696
					c0.085-2.04,1.654-3.697,3.697-3.697C127.935,9.436,129.59,11.092,129.59,13.133z"/>
			</g>
			<g>
				<path fill="#7D7E80" d="M129.279,13.34c0,4.101-0.073,3.222-3.119,3.297c-2.598,0.064-3.27,0.518-3.119-3.297
					c0.072-1.819,1.396-3.297,3.119-3.297C127.884,10.042,129.279,11.519,129.279,13.34z"/>
			</g>
			<g>
				<circle fill="#F5F4F4" cx="125.051" cy="11.246" r="0.587"/>
			</g>
			<g>
				<path fill="#96999B" d="M128.497,13.633c0,3.197-0.033,2.513-1.425,2.57c-1.188,0.05-1.494,0.404-1.426-2.57
					c0.033-1.418,0.639-2.57,1.426-2.57S128.497,12.214,128.497,13.633z"/>
			</g>
		</g>
		<g>
			<rect x="28.537" y="47.3" fill="#8E8E9A" width="177.857" height="13.631"/>
		</g>
		<g>
			<rect x="28.537" y="60.931" fill="#6E7280" width="177.857" height="47.914"/>
		</g>
		<g>
			<rect x="28.802" y="53.783" fill="#BBBBC2" width="177.855" height="11.161"/>
		</g>
		<g>
			<rect x="28.802" y="92.388" fill="#4D5363" width="177.855" height="11.161"/>
		</g>
		<g>
			<rect x="28.802" y="71.681" fill="#BBBBC2" width="177.855" height="11.162"/>
		</g>
		<g>
			<path fill="#2C3738" d="M225.183,56.723l17.328-9.396l-1.24-2.285l-17.896,9.704C224.083,55.302,224.742,55.94,225.183,56.723z"
				/>
		</g>
		<g>
			
				<rect x="232.313" y="71.642" transform="matrix(-0.3363 0.9418 -0.9418 -0.3363 398.2983 -97.8083)" fill="#231F20" width="2.602" height="39.604"/>
		</g>
		<g>
			<g>
				<path fill="#447FAB" d="M205.154,49.747c1.215-0.21,2.459-0.32,3.725-0.32c13.66,0,24.736,12.683,24.736,28.329
					c0,15.645-11.076,28.328-24.736,28.328c-1.266,0-2.51-0.109-3.725-0.32V49.747z"/>
				<path fill="#689DCD" d="M208.878,106.583c-1.276,0-2.558-0.11-3.811-0.328l-0.414-0.072V49.326l0.415-0.072
					c1.258-0.217,2.539-0.328,3.81-0.328c13.915,0,25.236,12.933,25.236,28.829C234.115,93.651,222.793,106.583,208.878,106.583
					L208.878,106.583z M205.654,105.338c1.063,0.163,2.146,0.245,3.225,0.245c13.364,0,24.236-12.484,24.236-27.828
					c0-15.345-10.872-27.829-24.236-27.829c-1.074,0-2.156,0.083-3.225,0.246V105.338L205.654,105.338z"/>
			</g>
			<g>
				<g>
					<path fill="#7380AC" d="M205.154,92.455V62.597V50.734c0.33-0.016,0.658-0.029,0.99-0.029
						c13.662,0,24.736,11.404,24.736,27.051c0,15.645-11.074,27.05-24.736,27.05c-0.332,0-0.66-0.015-0.99-0.03V92.455z"/>
					<path fill="#B7B0D0" d="M206.144,105.805c-0.348,0-0.691-0.015-1.037-0.031l-0.953-0.045V49.78l0.953-0.045
						c0.346-0.016,0.689-0.03,1.037-0.03c14.432,0,25.736,12.321,25.736,28.051C231.88,93.484,220.576,105.805,206.144,105.805
						L206.144,105.805z M206.154,51.705v52.101c13.527-0.005,23.727-11.203,23.727-26.05
						C229.88,62.908,219.681,51.71,206.154,51.705L206.154,51.705z"/>
				</g>
			</g>
			<g>
				<rect x="204.119" y="47.214" fill="#272626" width="7.215" height="66.635"/>
			</g>
			<g>
				<polygon fill="#6488B5" points="207.923,107.869 207.923,49.036 204.863,49.036 205.277,107.869 				"/>
				<path fill="#B7B0D0" d="M208.423,108.369h-3.643l-0.422-59.833h4.064V108.369L208.423,108.369z M205.773,107.369h1.65V49.536
					h-2.057L205.773,107.369L205.773,107.369z"/>
			</g>
		</g>
		<g>
			<path fill="#595C6C" d="M223.521,57.626l1.639-0.903c-0.756-0.753-1.281-1.274-1.994-1.788c-0.021-0.018-0.039-0.035-0.059-0.053
				l-1.627,0.877C222.181,56.361,222.873,56.911,223.521,57.626z"/>
		</g>
		<g>
			<path fill="#595C6C" d="M219.73,56.632l-8.176,4.404v2.958l10.248-5.511C221.236,57.757,220.55,57.216,219.73,56.632z"/>
		</g>
		<g>
			<g>
				<path fill="#447FAB" d="M29.814,49.306c-1.251-0.215-2.532-0.329-3.836-0.329c-14.07,0-25.478,13.065-25.478,29.18
					s11.408,29.177,25.478,29.177c1.304,0,2.584-0.113,3.836-0.329V49.306z"/>
				<path fill="#689DCD" d="M25.978,107.833C11.654,107.833,0,94.521,0,78.157c0-16.365,11.654-29.68,25.978-29.68
					c1.302,0,2.621,0.113,3.92,0.336l0.416,0.071v58.541l-0.415,0.071C28.604,107.72,27.286,107.833,25.978,107.833L25.978,107.833z
					 M25.978,49.477C12.205,49.477,1,62.343,1,78.157c0,15.813,11.205,28.677,24.978,28.677c1.111,0,2.231-0.085,3.336-0.254V49.731
					C28.205,49.563,27.084,49.477,25.978,49.477L25.978,49.477z"/>
			</g>
			<g>
				<rect x="12.575" y="61.341" fill="#594958" width="14.56" height="33.125"/>
			</g>
			<g>
				<g>
					<path fill="#7380AC" d="M29.814,93.296H14.343V62.542h15.471V49.007c-0.339-0.016-0.678-0.03-1.019-0.03
						c-14.072,0-25.478,13.065-25.478,29.18s11.406,29.177,25.478,29.177c0.341,0,0.68-0.014,1.019-0.028V93.296z"/>
					<path fill="#B7B0D0" d="M28.795,108.333c-14.6,0-26.478-13.537-26.478-30.177c0-16.641,11.878-30.18,26.478-30.18
						c0.357,0,0.711,0.015,1.065,0.031l0.954,0.044v15.49H15.343v28.754h15.471v15.966l-0.957,0.042
						C29.504,108.319,29.151,108.333,28.795,108.333L28.795,108.333z M28.795,49.977c-13.497,0-24.478,12.641-24.478,28.18
						c0,15.537,10.981,28.177,24.478,28.177c0.006,0,0.013,0,0.019,0V94.296H13.343V61.542h15.471V49.977
						C28.808,49.977,28.801,49.977,28.795,49.977L28.795,49.977z"/>
				</g>
			</g>
			<g>
				<rect x="22.571" y="46.699" fill="#272626" width="8.308" height="66.879"/>
			</g>
			<g>
				<polygon fill="#6488B5" points="25.384,108.751 25.384,48.153 28.537,48.153 28.111,108.751 				"/>
				<path fill="#B7B0D0" d="M28.608,109.251h-3.724V47.653h4.156L28.608,109.251L28.608,109.251z M25.884,108.251h1.73l0.419-59.599
					h-2.149V108.251L25.884,108.251z"/>
			</g>
			<g>
				<path fill="#FFFFFF" d="M17.238,69.06c0,0-1.327,2.602-1.673,4.373c-0.458,2.352-0.557,4.471-0.557,4.471l-5.895-0.613
					c0.028-0.672,0.185-3.553,0.821-5.613c1.002-3.252,2.377-5.554,2.377-5.554L17.238,69.06z"/>
			</g>
			<g>
				<path fill="#FFFFFF" d="M11.017,65.278c0,0-1.514,2.175-2.59,5.71c-1.032,3.385-0.946,6.303-0.946,6.303H5.106
					c0,0,0.17-3.695,1.003-6.711c0.854-3.099,2.893-6.643,2.893-6.643L11.017,65.278z"/>
			</g>
		</g>
		<g>
			<g>
				
					<rect x="220.59" y="78.518" transform="matrix(0.4776 -0.8786 0.8786 0.4776 29.5366 246.3118)" width="2.601" height="39.602"/>
			</g>
			<g>
				<polygon fill="#3C4450" points="204.552,87.722 203.703,88.703 239.107,108.215 239.957,107.234 				"/>
			</g>
			<g>
				<g>
					<path fill="#1F2C2D" d="M235.271,72.172c-0.299-0.075-2.1-0.533-4.578-1.143c-4.42-1.246-11.225-3.083-16.256-4.063
						c-2.492-0.483-8.061-1.24-14.449-2.022v19.782c11.873-1.133,23.695-3.023,35.283-4.951V72.172z"/>
				</g>
				<g>
					<path fill="#231F20" d="M199.988,84.726v6.203c6.389-0.781,11.957-2.104,14.449-2.589c5.031-0.979,11.836-2.817,16.256-4.063
						c2.479-0.607,4.279-1.065,4.578-1.141v-3.361C223.683,81.703,211.861,83.593,199.988,84.726z"/>
				</g>
				<g>
					<path fill="#231F20" d="M243.794,72.049l-8.475,0.136c0,0-0.02-0.005-0.049-0.013v10.964c0.029-0.008,0.049-0.013,0.049-0.013
						l8.475,0.136l-0.104-5.605L243.794,72.049z"/>
				</g>
				<g>
					<path fill="#595959" d="M170.263,61.884c-3.469-0.055-49.737-1.033-72.673-1.707v34.17c23.231,0,68.89-0.094,72.357-0.149
						c3.014-0.048,18.115-1.807,30.041-3.269V64.944C188.062,63.483,173.277,61.931,170.263,61.884z"/>
				</g>
				<g>
					<path fill="#676463" d="M63.005,92.235c-1.485-0.4-4.32-1.591-7.16-3.376c-2.905-1.709-5.655-3.954-7.133-6.848
						c-0.708-1.281-1.129-2.646-1.129-4.078c0-0.094,0.008-0.186,0.01-0.279c-0.001-0.094-0.01-0.184-0.01-0.279
						c0-1.432,0.422-2.797,1.129-4.078c1.479-2.895,4.228-5.138,7.133-6.848c2.84-1.783,5.675-2.975,7.16-3.375
						c7.271-1.959,17.807-1.963,17.807-1.963v33.087C80.812,94.198,70.276,94.193,63.005,92.235z"/>
				</g>
				<g>
					<polygon fill="#8F8C8C" points="84.736,95.823 80.812,94.198 80.812,61.111 84.736,59.486 					"/>
				</g>
			</g>
			<g>
				<path fill="#626161" d="M199.988,68.194c0,0,12.578,1.743,17.857,3.021c5.281,1.278,17.32,2.857,17.32,2.857v3.761
					c0,0-6.441-1.076-14.996-1.93c-8.555-0.853-20.182-0.377-20.182-0.377V68.194z"/>
			</g>
			<g>
				<polygon fill="#2C3738" points="206.986,73.044 203.703,71.479 242.259,60.257 242.966,62.759 				"/>
			</g>
			<g>
				<path fill="#6B6968" d="M126.681,75.478c-9.861-0.055-19.515,0.408-29.091,0.336v5.203c6.929,0.104,13.864,0.061,20.769-0.004
					c14.689-0.135,29.334-0.499,43.942-1.91c12.563-1.214,25.078-2.807,37.688-3.576v-0.873
					C175.38,74.34,151.353,75.613,126.681,75.478z"/>
			</g>
			<g>
				<path fill="#CDCBCA" d="M170.263,66.044c-3.469-0.039-49.737-0.991-72.673-1.465v7.518c10.093,0.176,20.486-0.076,30.158,0.396
					c24.679,1.205,47.654-1.861,72.24,0.723v-5.022C188.062,67.167,173.277,66.076,170.263,66.044z"/>
			</g>
			<g>
				<path fill="#938F8F" d="M162.808,81.978c-14.658,0.856-29.742,1.111-44.439,1.281c-7.149,0.082-13.919-0.187-20.779-0.535v6.959
					c22.937-0.475,69.205-1.426,72.673-1.465c3.014-0.033,17.799-1.84,29.725-2.866v-5.925
					C187.21,81.548,175.796,81.22,162.808,81.978z"/>
			</g>
			<g>
				<path fill="#C1BEBD" d="M64.768,71.215c1.642-0.14,14.396,0.13,16.043,0.022v-6.922c0,0-9.782,0.003-16.536,1.381
					c-1.38,0.279-4.012,1.117-6.648,2.373c-2.699,1.201-5.252,2.779-6.625,4.814c-0.343,0.47-0.611,0.957-0.791,1.456
					C58.771,73.53,56.188,71.949,64.768,71.215z"/>
			</g>
			<g>
				<path fill="#938F8F" d="M62.209,83.328c7.034,0.995,12.361,1.482,18.602,0.995v-9.372c-1.979,0.133-8.439-0.605-10.42-0.61
					c-9.484-0.023-13.173,0.813-20.435,1.483c0.002,0.041,0.004,0.082,0.005,0.124c-0.002,0.065-0.008,0.13-0.008,0.196
					c0,0.99,0.947,2.176,1.585,3.063C55.284,82.085,58.538,82.808,62.209,83.328z"/>
			</g>
			<g>
				<polygon fill="#525555" points="205.343,72.22 204.529,71.905 243.085,60.685 241.326,61.935 				"/>
			</g>
			<g>
				<path fill="#142425" d="M259.673,46.916c3.738,1.506,7.365,1.473,7.365,1.473v24.377v10.139v24.375c0,0-3.627-0.032-7.365,1.473
					c-3.656,1.473-8.979,4.223-14.316,4.223c-5,0-6.982-1.844-6.982-1.844V82.904V72.765V44.539c0,0,1.982-1.846,6.982-1.846
					C250.695,42.693,256.017,45.444,259.673,46.916z"/>
			</g>
			<g>
				<path fill="#1E3744" d="M260.058,59.966c2.566,0.868,5.082,1.127,6.404,1.203v16.84c-2.771-0.122-5.396-0.828-7.988-1.707
					c-3.43-1.737-7.551-4.043-10.217-1.082c-0.611,0.678-0.842,1.565-1.072,2.393c-0.857,1.17-0.268,14.867-0.268,19.008
					c-0.002,2.077-2.26,3.148-2.74,3.148c-2.209,0-3.266-1.742-3.266-3.106V58.654c0.01-0.019,0.025-0.032,0.033-0.053
					c0.41-0.783,0.941-1.392,1.537-1.926c1.02-0.775,1.682-1.137,2.961-1.137C250.783,55.539,256.4,58.731,260.058,59.966z"/>
			</g>
			<g>
				<polygon fill="#6A6465" points="95.139,95.742 97.59,94.542 97.59,60.177 95.139,59.406 				"/>
			</g>
			<g>
				<rect x="84.736" y="59.486" fill="#858282" width="10.402" height="36.256"/>
			</g>
			<g>
				<rect x="84.736" y="66.742" fill="#A7A4A4" width="10.402" height="2.904"/>
			</g>
		</g>
		<g>
			<path fill="#142425" d="M208.63,118.531c0,8.475-6.871,15.345-15.346,15.345H42.175c-8.475,0-15.345-6.87-15.345-15.345v-0.854
				c0-8.475,6.87-15.344,15.345-15.344h151.109c8.475,0,15.346,6.869,15.346,15.344V118.531z"/>
		</g>
		<g>
			<path fill="#E0BD1B" d="M33.492,46.291c0,0,2.863-8.588,14.09-19.519c11.309-11.009,16.1-14.939,29.242-19.909
				c16.049-6.07,25.246-5.856,26.156-5.856c0.911,0,2.082-0.129,2.603,0.781c0.521,0.911,9.006,10.671,18.882,12.493
				c9.877,1.822,21.329-4.476,22.5-5.314c1.17-0.837,1.691,0.446,2.992,0.944c1.301,0.499,4.293,3.303,5.855,3.25
				c1.561-0.052,4.598,0.579,7.98,1.621c3.383,1.041,12.191,4.574,22.859,5.875c10.672,1.302,25.178,1.042,30.027,0.911
				c4.848-0.131,5.766-1.042,7.129,0.911c1.361,1.951,2.133,2.732,1.352,4.424c-0.781,1.692-4.277,10.381-5.775,15.791
				c-1.754,6.343-1.631,13.922-9.309,14.03s-26.674,0.161-33.049,2.438c-6.377,2.277-16.141,6.526-25.381,6.523
				c-6.506-0.002-42.68-0.266-46.583-0.525c-3.904-0.26-10.67-2.822-13.924-3.818c-3.253-0.996-8.475-3.239-15.064-4.021
				c-6.589-0.78-26.706-0.229-29.959-0.359c-3.254-0.13-3.905-0.391-6.117-1.171c-2.212-0.781-2.863-0.521-2.863-2.862
				C37.135,50.585,33.492,46.291,33.492,46.291z"/>
			<path fill="#D98524" d="M151.656,66.685h-0.01c-6.757-0.002-42.769-0.269-46.65-0.528c-3.148-0.209-7.973-1.819-11.496-2.994
				c-1.014-0.338-1.923-0.642-2.654-0.866c-0.747-0.229-1.596-0.522-2.541-0.848c-3.105-1.074-7.359-2.544-12.349-3.135
				c-2.394-0.284-6.902-0.421-13.781-0.421c-3.253,0-6.52,0.03-9.277,0.055c-3.277,0.03-5.825,0.054-6.823,0.013
				c-3.309-0.132-4.101-0.412-6.219-1.16l-0.19-0.067c-0.353-0.124-0.664-0.221-0.937-0.307c-1.657-0.516-2.594-0.934-2.594-3.499
				c0-1.436-2.089-4.437-3.406-5.991l-0.364-0.429l0.178-0.534c0.12-0.36,3.07-8.945,14.341-19.919
				C58.232,15.008,63.03,11.01,76.47,5.927c14.131-5.344,23.045-5.921,26.222-5.921l0.202,0L103.613,0c0.628,0,2.099,0,2.837,1.291
				c0.578,0.945,8.782,10.27,18.195,12.006c1.125,0.208,2.33,0.313,3.583,0.313c8.561,0,17.154-4.741,18.154-5.457
				c0.43-0.307,0.873-0.463,1.318-0.463c0.729,0,1.26,0.395,1.729,0.744c0.291,0.217,0.566,0.421,0.885,0.543
				c0.605,0.232,1.361,0.765,2.236,1.382c1.019,0.718,2.558,1.803,3.218,1.803l0.229-0.003c1.699,0,4.648,0.608,8.089,1.668
				c0.623,0.191,1.429,0.466,2.394,0.796c4.364,1.492,11.67,3.99,20.293,5.042c6.886,0.84,15.438,1.016,21.399,1.016
				c3.564,0,6.579-0.061,8.479-0.112c1.342-0.036,2.378-0.134,3.21-0.212c0.674-0.064,1.206-0.114,1.688-0.114
				c1.379,0,2.241,0.467,3.078,1.665l0.379,0.538c1.165,1.641,2.008,2.827,1.061,4.878c-0.688,1.487-4.194,10.127-5.72,15.638
				c-0.317,1.148-0.578,2.367-0.83,3.545c-1.115,5.212-2.378,11.119-9.429,11.218l-1.92,0.024c-8.137,0.1-25.069,0.306-30.807,2.356
				c-0.941,0.336-1.957,0.715-3.034,1.118C168.157,63.527,159.703,66.685,151.656,66.685L151.656,66.685z M62.175,55.893
				c6.959,0,11.543,0.142,14.017,0.435c5.205,0.617,9.576,2.128,12.767,3.231c0.919,0.317,1.746,0.604,2.473,0.826
				c0.743,0.228,1.669,0.536,2.701,0.88c3.42,1.141,8.104,2.704,10.996,2.896c3.849,0.256,39.772,0.521,46.517,0.523l0.01,1v-1
				c7.686,0,15.943-3.085,21.973-5.337c1.087-0.406,2.112-0.789,3.063-1.128c6.051-2.162,22.576-2.364,31.454-2.472l1.917-0.024
				c5.192-0.073,6.232-3.709,7.5-9.636c0.258-1.207,0.525-2.455,0.858-3.661c1.479-5.344,4.95-14.036,5.831-15.944
				c0.447-0.968,0.25-1.297-0.875-2.881l-0.389-0.551c-0.519-0.743-0.791-0.81-1.438-0.81c-0.388,0-0.879,0.046-1.5,0.105
				c-0.862,0.082-1.936,0.183-3.344,0.221c-1.914,0.052-4.947,0.113-8.534,0.113c-6.018,0-14.656-0.179-21.642-1.031
				c-8.83-1.077-16.26-3.617-20.698-5.134c-0.941-0.322-1.727-0.591-2.334-0.778c-3.163-0.974-6.037-1.579-7.501-1.579l-0.152,0.002
				c-0.001,0-0.002,0-0.002,0c-1.371,0-2.934-1.102-4.445-2.167c-0.701-0.495-1.427-1.006-1.799-1.149
				c-0.576-0.22-1.013-0.545-1.363-0.806c-0.176-0.131-0.441-0.329-0.54-0.349c0,0.003-0.052,0.02-0.149,0.09
				c-1.069,0.764-10.234,5.83-19.318,5.83c-1.375,0-2.702-0.116-3.946-0.346c-10.327-1.905-19.062-12.094-19.568-12.98
				C104.617,2.113,104.392,2,103.613,2l-0.633,0.006l-0.287-0.001c-2.393,0-11.304,0.418-25.515,5.792
				c-13.08,4.947-17.775,8.863-28.897,19.69c-9.373,9.125-12.844,16.647-13.646,18.617c1.009,1.258,3.502,4.595,3.502,6.823
				c0,1.219,0,1.219,1.189,1.589c0.294,0.092,0.629,0.196,1.007,0.33l0.191,0.067c2.017,0.712,2.625,0.927,5.633,1.047
				c0.978,0.04,3.512,0.015,6.725-0.015C55.643,55.922,58.916,55.893,62.175,55.893L62.175,55.893z"/>
		</g>
		<g>
			<path fill="#E5AC23" d="M223.164,22.28c0.244,1.118,0.375,2.729-0.299,3.531c-3.461,4.112-4.891,8.768-5.48,14.065
				c-0.344,3.11-1.633,6.136-3.158,8.904c0.23,0.226,0.32,0.604,0.033,0.907c-0.428,0.446-0.885,0.848-1.367,1.207v0.5h-0.725
				c-2.076,1.316-4.529,1.964-7.006,2.196c-0.15,0.014-0.268-0.021-0.361-0.083c-0.357,0-0.715-0.006-1.07-0.016
				c-1.473,0.129-2.955,0.209-4.418,0.323c-5.488,0.428-10.965,0.287-16.461,0.265c-0.088,0.207-0.271,0.377-0.555,0.399
				c-6.469,0.517-12.955,0.137-19.42,0.851c-6.248,0.689-12.381,1.018-18.658,1.209c-6.41,0.197-12.785,0.045-19.137-0.902
				c-5.259-0.784-10.857-1.584-15.544-4.242l-69.813-0.039c-1.034,0.429-1.378,0.646-2.27,0.799
				c0.034,0.187,0.055,0.364,0.055,0.531c0,2.342,0.65,2.082,2.862,2.863c2.212,0.779,2.12,0.95,5.373,1.08
				c3.254,0.131,23.371-0.422,29.959,0.359c6.59,0.781,11.812,3.023,15.063,4.02c3.254,0.996,10.02,3.559,13.925,3.818
				c3.904,0.261,40.079,0.523,46.583,0.525c9.242,0.004,19.006-4.246,25.381-6.523c6.377-2.278,25.371-2.305,33.049-2.438
				c7.822-0.137,7.449-7.435,9.309-14.031c1.525-5.404,5.109-14.26,5.93-15.933C225.626,25.034,223.861,23.34,223.164,22.28z"/>
		</g>
		<g>
			<path fill="#EAD073" d="M70.642,36.13c1.534-0.767,14.965-11.507,46.534-8.746c31.568,2.762,20.113,8.093,53.716,10.087
				c33.604,1.995,44.652-2.38,44.652-2.38s2.768-5.832,3.84-7.672c1.07-1.841,2.506-2.302,2.506-2.302s-2.896,5.062-4.314,9.359
				c-1.418,4.296-3.029,15.155-5.246,16.728c-2.215,1.572-5.332,2.301-5.332,2.301s5.434,0.088,7.262-1.383
				c1.83-1.473,4-16.685,6.318-20.326c1.893-2.975,3.506-8.429,2.104-8.32c-0.814,0.063-1.277,0.581-11.127,1.335
				c-17.52,1.341-40.938,7.208-58.697,4.422c-10.129-1.587-14.736-7.349-28.393-7.809c-13.657-0.46-29.886-1.088-41.853,6.267
				C77.857,30.612,70.642,36.13,70.642,36.13z"/>
			<path fill="#F2D7B7" d="M207.172,53.756l-0.179-0.001l-0.053-0.494c0.03-0.007,3.097-0.736,5.244-2.261
				c1.42-1.007,2.68-6.473,3.691-10.866c0.514-2.227,0.998-4.331,1.462-5.736c1.092-3.31,3.076-7.105,3.928-8.671
				c-0.479,0.321-1.123,0.884-1.666,1.817c-1.055,1.811-3.802,7.596-3.83,7.654l-0.042,0.089l-0.092,0.036
				c-0.073,0.029-7.609,2.919-28.285,2.919c-5.101,0-10.643-0.176-16.474-0.522c-17.505-1.039-22.759-2.963-28.32-5
				c-5.053-1.85-10.278-3.764-25.403-5.087c-3.428-0.3-6.803-0.452-10.032-0.452c-14.55,0-26.55,2.942-35.666,8.745
				c-0.331,0.211-0.563,0.358-0.702,0.427l-0.264-0.422c0.072-0.055,7.279-5.559,11.99-8.453c9.452-5.809,21.516-6.554,30.97-6.554
				c3.622,0,7.174,0.12,10.609,0.236l0.414,0.014c8.019,0.27,12.917,2.35,17.654,4.361c3.386,1.438,6.584,2.795,10.77,3.451
				c3.167,0.497,6.599,0.738,10.49,0.738c9.58,0,19.918-1.485,29.916-2.92c6.495-0.933,12.629-1.813,18.232-2.243
				c7.637-0.584,9.638-1.031,10.492-1.222c0.27-0.06,0.443-0.098,0.635-0.112c0.307-0.05,0.513,0.123,0.64,0.353
				c0.655,1.194-0.885,5.792-2.513,8.351c-1.131,1.776-2.23,6.38-3.294,10.833c-1.123,4.701-2.093,8.761-3.079,9.554
				C212.756,53.653,208.452,53.756,207.172,53.756L207.172,53.756z M222.427,24.683l-0.32,0.559c-0.028,0.051-2.9,5.09-4.294,9.313
				c-0.456,1.383-0.938,3.477-1.449,5.692c-1.138,4.938-2.314,10.044-3.89,11.162c-1.155,0.82-2.535,1.411-3.614,1.794
				c1.715-0.104,4.163-0.407,5.243-1.275c0.853-0.687,1.896-5.056,2.905-9.281c1.073-4.493,2.183-9.138,3.358-10.985
				c1.728-2.716,2.963-6.993,2.496-7.842c-0.048-0.088-0.097-0.095-0.142-0.095c-0.191,0.014-0.346,0.049-0.586,0.103
				c-0.864,0.193-2.89,0.645-10.562,1.233c-5.588,0.427-11.714,1.307-18.2,2.238c-10.016,1.438-20.372,2.925-29.987,2.926
				c-3.918,0-7.375-0.244-10.568-0.744c-4.246-0.666-7.472-2.035-10.887-3.485c-4.695-1.993-9.55-4.055-17.476-4.321l-0.414-0.014
				c-3.431-0.116-6.979-0.236-10.592-0.236c-9.388,0-21.363,0.737-30.708,6.479c-2.555,1.57-5.852,3.914-8.334,5.731
				c8.735-4.616,19.719-6.954,32.715-6.954c3.244,0,6.633,0.152,10.076,0.454c15.191,1.329,20.447,3.254,25.531,5.116
				c5.526,2.024,10.747,3.936,28.178,4.971c5.821,0.346,11.354,0.521,16.444,0.521c19.352,0,27.108-2.531,28.012-2.851
				c0.37-0.778,2.801-5.875,3.806-7.599c1.105-1.902,2.583-2.394,2.646-2.414L222.427,24.683L222.427,24.683z"/>
		</g>
		<g>
			<path fill="#EAD073" d="M38.781,51.816c1.074,0.613-1.424,0.307,8.801,0.613c10.225,0.309,26.096-1.225,35.192,2.916
				c9.097,4.141,5.875,4.266,28.584,5.586c22.709,1.319,36.825,0,46.032,0s11.508-1.38,21.33-4.266
				c9.818-2.883,16.725-2.883,16.725-2.883s-19.641-0.129-31.916,0.333s-27.311,4.395-40.508-0.333
				c-13.196-4.729-21.942-6.877-38.284-8.411c-16.341-1.534-25.454,0.345-34.783,2.781C40.623,50.588,38.781,51.816,38.781,51.816z"
				/>
			<path fill="#F2D7B7" d="M131.339,61.768c-6.659,0-13.199-0.192-19.996-0.587c-19.395-1.127-19.956-1.401-25.323-4.018
				c-0.93-0.453-2.005-0.978-3.35-1.59c-5.667-2.58-14.078-2.927-21.558-2.927c-1.805,0-3.593,0.021-5.327,0.041
				c-1.636,0.019-3.225,0.037-4.735,0.038c-1.213,0-2.378-0.012-3.476-0.045c-3.111-0.093-5.043-0.13-6.257-0.153
				c-2.155-0.041-2.155-0.041-2.388-0.286c-0.051-0.054-0.109-0.114-0.272-0.208l-0.352-0.201l0.337-0.225
				c0.077-0.051,1.983-1.279,11.248-3.697c6.749-1.763,13.646-3.345,23.785-3.345c3.471,0,7.097,0.182,11.085,0.556
				c17.092,1.605,25.983,3.995,38.345,8.425c4.303,1.542,9.205,2.291,14.985,2.291c4.997,0,10.004-0.541,14.847-1.064
				c3.717-0.402,7.227-0.781,10.582-0.908c7.682-0.289,18.165-0.35,25.607-0.35c3.799,0,6.32,0.017,6.32,0.017l-0.002,0.5
				c-0.068,0-6.988,0.035-16.654,2.873c-1.861,0.547-3.452,1.04-4.872,1.479c-6.012,1.862-9.029,2.796-16.528,2.796
				c-2.581,0-5.551,0.104-8.989,0.224C143.792,61.567,138.054,61.768,131.339,61.768L131.339,61.768z M61.113,52.146
				c7.534,0,16.012,0.353,21.765,2.972c1.35,0.614,2.429,1.141,3.362,1.596c5.286,2.577,5.838,2.846,25.133,3.968
				c6.787,0.394,13.317,0.586,19.966,0.586c6.706,0,12.198-0.192,17.044-0.362c3.443-0.121,6.417-0.225,9.007-0.225
				c7.423,0,10.23-0.87,16.381-2.774c1.421-0.44,3.015-0.934,4.879-1.481c4.425-1.299,8.28-2.015,11.178-2.41
				c-0.229,0-0.463,0-0.701,0c-7.438,0-17.914,0.061-25.588,0.35c-3.339,0.125-6.841,0.504-10.548,0.905
				c-4.855,0.525-9.877,1.067-14.9,1.067c-5.838,0-10.795-0.759-15.154-2.32c-12.322-4.415-21.184-6.798-38.223-8.397
				c-3.972-0.373-7.583-0.554-11.038-0.554c-10.079,0-16.942,1.574-23.659,3.328c-7.175,1.873-9.917,3.038-10.77,3.456
				c0.017,0.017,0.032,0.032,0.045,0.046c0.085,0.089,0.18,0.095,2.035,0.13c1.215,0.023,3.149,0.06,6.263,0.153
				c1.094,0.033,2.254,0.045,3.461,0.045c0.001,0,0.002,0,0.002,0c1.509,0,3.094-0.019,4.727-0.038
				C57.516,52.167,59.305,52.146,61.113,52.146L61.113,52.146z"/>
		</g>
		<g>
			<path fill="#E5AC23" d="M35.252,45.832c0,0,4.014-7.676,7.211-11.661c3.62-4.512,11.815-11.355,11.815-11.355
				S44.25,34.319,42.924,36.319C41.443,38.552,36.326,47.3,36.326,47.3L35.252,45.832z"/>
			<path fill="#F6D038" d="M36.35,47.756l-1.391-1.902l0.072-0.138c0.041-0.077,4.063-7.743,7.238-11.702
				c3.594-4.479,11.768-11.323,11.85-11.391l0.349,0.356c-0.1,0.115-10.033,11.515-11.334,13.478
				c-1.461,2.202-6.54,10.882-6.591,10.97L36.35,47.756L36.35,47.756z M35.546,45.81l0.757,1.035
				c0.947-1.616,5.108-8.698,6.413-10.665c0.937-1.412,6.062-7.393,9.108-10.917c-2.716,2.394-6.881,6.216-9.166,9.063
				C39.747,37.956,36.103,44.759,35.546,45.81L35.546,45.81z"/>
		</g>
	</g>
</g>
</svg>
