<?xml version="1.0" encoding="utf-8"?>
<!-- Generator: Adobe Illustrator 13.0.0, SVG Export Plug-In . SVG Version: 6.00 Build 14948)  -->
<!DOCTYPE svg PUBLIC "-//W3C//DTD SVG 1.1//EN" "http://www.w3.org/Graphics/SVG/1.1/DTD/svg11.dtd">
<svg version="1.1" id="Layer_1" xmlns="http://www.w3.org/2000/svg" xmlns:xlink="http://www.w3.org/1999/xlink" x="0px" y="0px"
	 width="45px" height="180px" viewBox="0 0 45 180" enable-background="new 0 0 45 180" xml:space="preserve">
<polyline id="fwd6" fill="#009245" points="0,0 45,0 43,9.25 1.719,9.25 "/>
<polyline id="fwd5" fill="#009245" points="2.339,12.667 42.61,12.667 41.329,21.501 3.698,21.501 "/>
<polyline id="fwd4" fill="#009245" points="4.416,26.5 40.584,26.5 39.455,35.666 5.561,35.666 "/>
<polyline id="fwd3" fill="#009245" points="5.966,39.5 39.063,39.5 38.104,48.5 6.872,48.5 "/>
<polyline id="fwd2" fill="#009245" points="7.424,53.667 37.618,53.667 36.937,62.667 8.085,62.667 "/>
<polyline id="fwd0" fill="#009245" points="8.885,81.001 36.115,81.001 36,90 9,90 "/>
<polyline id="rev6" fill="#C1272D" points="0.167,179.834 45,179.834 43.358,170.584 1.648,170.584 "/>
<polyline id="rev5" fill="#C1272D" points="2.339,166.667 42.61,166.667 41.329,157.833 3.698,157.833 "/>
<polyline id="rev4" fill="#C1272D" points="4.416,152.834 40.584,152.834 39.455,143.668 5.561,143.668 "/>
<polyline id="rev3" fill="#C1272D" points="6.038,139.834 39.127,139.834 38.163,130.834 6.917,130.834 "/>
<polyline id="rev2" fill="#C1272D" points="7.424,125.667 37.618,125.667 36.937,116.667 8.085,116.667 "/>
<polyline id="rev0" fill="#C1272D" points="8.885,98.833 36.115,98.833 36,89.834 9,89.834 "/>
<polyline id="rev1" fill="#C1272D" points="8.717,103.667 36.272,103.667 36.721,112.626 8.277,112.626 "/>
<polyline id="fwd1" fill="#009245" points="8.718,75.792 36.273,75.792 36.722,66.833 8.278,66.833 "/>
</svg>
